<svg width="67" height="57" viewBox="0 0 67 57" fill="none" xmlns="http://www.w3.org/2000/svg">
<rect width="66.5" height="57" fill="white"/>
<path d="M12.802 49.416L12.786 49.08C12.9727 49.0853 13.178 49.0533 13.402 48.984C13.6313 48.9093 13.8713 48.8 14.122 48.656C14.3727 48.512 14.6207 48.3413 14.866 48.144L15.13 48.456C14.7193 48.888 14.3407 49.2293 13.994 49.48C13.6527 49.7307 13.3407 49.9067 13.058 50.008C12.7753 50.1093 12.5087 50.16 12.258 50.16C11.9113 50.16 11.6953 50.1067 11.61 50C11.53 49.888 11.554 49.6747 11.682 49.36L13.41 44.96C13.4633 44.8213 13.5033 44.6987 13.53 44.592C13.562 44.48 13.578 44.3787 13.578 44.288C13.578 44.144 13.5327 44.032 13.442 43.952C13.3513 43.872 13.194 43.832 12.97 43.832C12.7033 43.832 12.418 43.936 12.114 44.144C11.81 44.352 11.506 44.64 11.202 45.008C10.9033 45.376 10.618 45.8053 10.346 46.296C10.0793 46.7813 9.84733 47.304 9.65 47.864L8.97 50H7.794L9.458 44.96C9.49533 44.864 9.52467 44.776 9.546 44.696C9.56733 44.616 9.58333 44.544 9.594 44.48C9.60467 44.4107 9.61 44.3467 9.61 44.288C9.61 44.144 9.56467 44.032 9.474 43.952C9.38867 43.872 9.23667 43.832 9.018 43.832C8.746 43.832 8.45533 43.944 8.146 44.168C7.842 44.3867 7.54067 44.6933 7.242 45.088C6.94867 45.4773 6.67133 45.9333 6.41 46.456C6.154 46.9733 5.93533 47.528 5.754 48.12L5.17 50H4.018L5.874 43.864C5.85267 43.864 5.834 43.864 5.818 43.864C5.802 43.864 5.78333 43.864 5.762 43.864C5.54333 43.864 5.33533 43.9013 5.138 43.976C4.94067 44.0507 4.746 44.1813 4.554 44.368C4.362 44.5493 4.16733 44.808 3.97 45.144L3.722 45.04C3.93 44.4587 4.16467 44.008 4.426 43.688C4.69267 43.3627 4.98067 43.1333 5.29 43C5.59933 42.8667 5.91933 42.8 6.25 42.8C6.35133 42.8 6.45 42.8053 6.546 42.816C6.642 42.8267 6.738 42.8427 6.834 42.864C6.93 42.88 7.026 42.904 7.122 42.936L6.122 46.12C6.48467 45.464 6.818 44.92 7.122 44.488C7.43133 44.056 7.722 43.7173 7.994 43.472C8.266 43.2267 8.52733 43.0533 8.778 42.952C9.034 42.8453 9.28733 42.792 9.538 42.792C9.97533 42.792 10.282 42.8773 10.458 43.048C10.6393 43.2187 10.73 43.4427 10.73 43.72C10.73 43.9067 10.698 44.1227 10.634 44.368C10.57 44.6133 10.4847 44.9067 10.378 45.248L10.202 45.8H10.194C10.514 45.2347 10.818 44.76 11.106 44.376C11.3993 43.9867 11.682 43.6773 11.954 43.448C12.226 43.2133 12.4927 43.0453 12.754 42.944C13.0207 42.8373 13.2847 42.784 13.546 42.784C13.9887 42.784 14.3033 42.8747 14.49 43.056C14.6767 43.2373 14.77 43.48 14.77 43.784C14.77 43.9653 14.7407 44.176 14.682 44.416C14.6233 44.656 14.53 44.944 14.402 45.28L12.802 49.416ZM19.7876 49.576L20.6836 46.888H20.8276C20.3956 47.528 20.009 48.0587 19.6676 48.48C19.3263 48.9013 19.0143 49.2347 18.7316 49.48C18.4543 49.72 18.1983 49.8907 17.9636 49.992C17.729 50.0933 17.4996 50.144 17.2756 50.144C16.9663 50.144 16.6943 50.088 16.4596 49.976C16.2303 49.8587 16.0516 49.68 15.9236 49.44C15.7956 49.1947 15.7316 48.88 15.7316 48.496C15.7316 48.0747 15.8116 47.616 15.9716 47.12C16.1316 46.6187 16.353 46.1227 16.6356 45.632C16.9236 45.136 17.2596 44.6827 17.6436 44.272C18.033 43.856 18.457 43.5253 18.9156 43.28C19.3743 43.0293 19.8543 42.904 20.3556 42.904C20.7076 42.904 20.993 42.9733 21.2116 43.112C21.4356 43.2507 21.6276 43.456 21.7876 43.728L21.5156 44.168C21.441 43.9867 21.3183 43.8373 21.1476 43.72C20.977 43.6027 20.7663 43.544 20.5156 43.544C20.1156 43.544 19.737 43.664 19.3796 43.904C19.0276 44.144 18.7023 44.4587 18.4036 44.848C18.1103 45.232 17.857 45.6453 17.6436 46.088C17.4303 46.5253 17.265 46.9493 17.1476 47.36C17.0303 47.7653 16.9716 48.1093 16.9716 48.392C16.9716 48.648 17.0436 48.84 17.1876 48.968C17.3316 49.0907 17.5156 49.152 17.7396 49.152C17.937 49.152 18.185 49.064 18.4836 48.888C18.7823 48.7067 19.089 48.4613 19.4036 48.152C19.7236 47.8427 20.0196 47.48 20.2916 47.064C20.569 46.648 20.7876 46.2053 20.9476 45.736L21.7636 43.2L22.7316 42.952H23.0036L20.8756 49.424L20.7076 49.088C20.8943 49.1147 21.1076 49.096 21.3476 49.032C21.593 48.9627 21.849 48.8533 22.1156 48.704C22.3876 48.5547 22.6543 48.368 22.9156 48.144L23.1636 48.456C22.5396 49.1013 22.0063 49.5467 21.5636 49.792C21.121 50.0373 20.7263 50.16 20.3796 50.16C20.129 50.16 19.9503 50.1067 19.8436 50C19.7423 49.8987 19.7236 49.7573 19.7876 49.576ZM26.0459 43.864C26.0245 43.864 26.0059 43.864 25.9899 43.864C25.9739 43.864 25.9552 43.864 25.9339 43.864C25.7152 43.864 25.5072 43.9013 25.3099 43.976C25.1125 44.0507 24.9179 44.1813 24.7259 44.368C24.5339 44.5493 24.3392 44.808 24.1419 45.144L23.8939 45.04C24.1019 44.4587 24.3365 44.008 24.5979 43.688C24.8645 43.3627 25.1525 43.1333 25.4619 43C25.7712 42.8667 26.0912 42.8 26.4219 42.8C26.5232 42.8 26.6219 42.8053 26.7179 42.816C26.8139 42.8267 26.9099 42.8427 27.0059 42.864C27.1072 42.88 27.2032 42.904 27.2939 42.936L26.3819 45.84H26.3979C26.7712 45.1253 27.1259 44.544 27.4619 44.096C27.7979 43.648 28.1285 43.32 28.4539 43.112C28.7845 42.8987 29.1179 42.792 29.4539 42.792C29.7792 42.792 30.0165 42.8693 30.1659 43.024C30.3152 43.1787 30.3899 43.3733 30.3899 43.608C30.3899 43.8 30.3419 43.9707 30.2459 44.12C30.1499 44.264 30.0272 44.376 29.8779 44.456C29.7339 44.536 29.5845 44.576 29.4299 44.576C29.3925 44.576 29.3445 44.552 29.2859 44.504C29.2325 44.456 29.1659 44.3813 29.0859 44.28C29.0112 44.1733 28.9365 44.0907 28.8619 44.032C28.7872 43.968 28.7125 43.936 28.6379 43.936C28.4939 43.936 28.3312 44.0027 28.1499 44.136C27.9685 44.2693 27.7792 44.456 27.5819 44.696C27.3899 44.936 27.1979 45.2213 27.0059 45.552C26.8139 45.8773 26.6299 46.2347 26.4539 46.624C26.2832 47.0133 26.1312 47.424 25.9979 47.856L25.3419 50H24.1899L26.0459 43.864ZM33.6083 43.464C33.2829 43.464 32.9816 43.5893 32.7043 43.84C32.4323 44.0853 32.1949 44.4107 31.9923 44.816C31.7949 45.216 31.6403 45.6613 31.5283 46.152C31.4163 46.6427 31.3603 47.1333 31.3603 47.624C31.3603 48.2053 31.4563 48.616 31.6483 48.856C31.8403 49.0907 32.1256 49.208 32.5043 49.208C32.7443 49.208 32.9763 49.1627 33.2003 49.072C33.4243 48.976 33.6456 48.8187 33.8643 48.6C34.0829 48.3813 34.2936 48.0827 34.4963 47.704H34.9923C34.7149 48.312 34.4323 48.7973 34.1443 49.16C33.8563 49.5173 33.5496 49.7733 33.2243 49.928C32.9043 50.0827 32.5443 50.16 32.1443 50.16C31.5043 50.16 31.0109 49.9813 30.6643 49.624C30.3176 49.2613 30.1443 48.7067 30.1443 47.96C30.1443 47.2453 30.2509 46.576 30.4643 45.952C30.6776 45.328 30.9683 44.7787 31.3363 44.304C31.7096 43.8293 32.1416 43.4587 32.6323 43.192C33.1283 42.9253 33.6536 42.792 34.2083 42.792C34.7256 42.792 35.1149 42.9013 35.3763 43.12C35.6429 43.3333 35.7763 43.5813 35.7763 43.864C35.7763 44.088 35.7069 44.2587 35.5683 44.376C35.4296 44.4933 35.2643 44.5547 35.0723 44.56C34.9869 44.56 34.8936 44.5067 34.7923 44.4C34.6909 44.288 34.5763 44.1573 34.4483 44.008C34.3203 43.8587 34.1869 43.7307 34.0483 43.624C33.9096 43.5173 33.7629 43.464 33.6083 43.464ZM40.1591 42.792C40.6285 42.792 41.0285 42.8907 41.3591 43.088C41.6898 43.28 41.9431 43.5547 42.1191 43.912C42.2951 44.2693 42.3831 44.7013 42.3831 45.208C42.3831 45.8533 42.2818 46.4747 42.0791 47.072C41.8818 47.664 41.6045 48.192 41.2471 48.656C40.8951 49.12 40.4791 49.488 39.9991 49.76C39.5245 50.0267 39.0071 50.16 38.4471 50.16C37.9885 50.16 37.5911 50.064 37.2551 49.872C36.9245 49.6747 36.6685 49.3973 36.4871 49.04C36.3111 48.6773 36.2231 48.2453 36.2231 47.744C36.2231 47.0987 36.3218 46.48 36.5191 45.888C36.7218 45.296 37.0018 44.768 37.3591 44.304C37.7165 43.84 38.1325 43.472 38.6071 43.2C39.0871 42.928 39.6045 42.792 40.1591 42.792ZM38.4711 49.544C38.7698 49.544 39.0525 49.4533 39.3191 49.272C39.5911 49.0907 39.8391 48.8453 40.0631 48.536C40.2925 48.2267 40.4898 47.8747 40.6551 47.48C40.8258 47.08 40.9565 46.6613 41.0471 46.224C41.1431 45.7813 41.1911 45.3467 41.1911 44.92C41.1911 44.408 41.1058 44.0293 40.9351 43.784C40.7645 43.5333 40.5005 43.408 40.1431 43.408C39.8445 43.408 39.5591 43.4987 39.2871 43.68C39.0151 43.8613 38.7645 44.1067 38.5351 44.416C38.3111 44.7253 38.1138 45.08 37.9431 45.48C37.7778 45.8747 37.6471 46.2933 37.5511 46.736C37.4605 47.1733 37.4151 47.608 37.4151 48.04C37.4151 48.5413 37.5005 48.9173 37.6711 49.168C37.8471 49.4187 38.1138 49.544 38.4711 49.544ZM48.9939 44.104C48.9192 43.9227 48.7965 43.7733 48.6259 43.656C48.4552 43.5333 48.2445 43.472 47.9939 43.472C47.5885 43.472 47.2045 43.5947 46.8419 43.84C46.4792 44.08 46.1485 44.3947 45.8499 44.784C45.5512 45.1733 45.2925 45.592 45.0739 46.04C44.8552 46.4827 44.6845 46.912 44.5619 47.328C44.4445 47.7387 44.3859 48.088 44.3859 48.376C44.3859 48.6373 44.4579 48.832 44.6019 48.96C44.7459 49.088 44.9299 49.152 45.1539 49.152C45.3245 49.152 45.5299 49.0907 45.7699 48.968C46.0099 48.8453 46.2605 48.6747 46.5219 48.456C46.7832 48.2373 47.0392 47.9813 47.2899 47.688C47.5459 47.3947 47.7752 47.0747 47.9779 46.728C48.1859 46.376 48.3459 46.0133 48.4579 45.64L50.2419 39.856C50.1459 39.776 50.0445 39.7013 49.9379 39.632C49.8312 39.5573 49.7139 39.488 49.5859 39.424C49.4632 39.3547 49.3245 39.2933 49.1699 39.24L49.2419 38.976L51.5539 38.56H51.7619L48.3619 49.424L48.1859 49.088C48.3725 49.1147 48.5859 49.096 48.8259 49.032C49.0712 48.9627 49.3272 48.8533 49.5939 48.704C49.8659 48.5547 50.1325 48.368 50.3939 48.144L50.6419 48.456C50.0232 49.1013 49.4925 49.5467 49.0499 49.792C48.6072 50.0373 48.2099 50.16 47.8579 50.16C47.6072 50.16 47.4285 50.1067 47.3219 50C47.2205 49.8987 47.2019 49.7573 47.2659 49.576L48.1619 46.888H48.3059C47.8685 47.5333 47.4765 48.0667 47.1299 48.488C46.7832 48.9093 46.4659 49.24 46.1779 49.48C45.8952 49.72 45.6312 49.8907 45.3859 49.992C45.1459 50.0933 44.9139 50.144 44.6899 50.144C44.3805 50.144 44.1085 50.088 43.8739 49.976C43.6445 49.8587 43.4659 49.6773 43.3379 49.432C43.2099 49.1813 43.1459 48.864 43.1459 48.48C43.1459 48.0533 43.2259 47.5893 43.3859 47.088C43.5512 46.5813 43.7779 46.0773 44.0659 45.576C44.3539 45.0747 44.6952 44.6187 45.0899 44.208C45.4845 43.792 45.9139 43.4587 46.3779 43.208C46.8419 42.952 47.3272 42.824 47.8339 42.824C48.1859 42.824 48.4712 42.896 48.6899 43.04C48.9139 43.1787 49.1059 43.384 49.2659 43.656L48.9939 44.104ZM55.091 43.4C54.771 43.4 54.4803 43.4907 54.219 43.672C53.9577 43.848 53.723 44.0853 53.515 44.384C53.3123 44.6827 53.1417 45.0187 53.003 45.392C52.8643 45.76 52.7577 46.1387 52.683 46.528C52.6137 46.912 52.579 47.2773 52.579 47.624C52.579 48.2053 52.691 48.616 52.915 48.856C53.1443 49.0907 53.4537 49.208 53.843 49.208C54.099 49.208 54.3417 49.1627 54.571 49.072C54.8003 48.9813 55.019 48.8293 55.227 48.616C55.4403 48.3973 55.6457 48.0933 55.843 47.704H56.355C56.0777 48.3333 55.795 48.8267 55.507 49.184C55.2243 49.5413 54.9177 49.7947 54.587 49.944C54.2617 50.088 53.891 50.16 53.475 50.16C53.0377 50.16 52.6617 50.0773 52.347 49.912C52.0323 49.7467 51.7897 49.5013 51.619 49.176C51.4483 48.8507 51.363 48.4453 51.363 47.96C51.363 47.384 51.4323 46.8373 51.571 46.32C51.7097 45.7973 51.9043 45.3227 52.155 44.896C52.4057 44.4693 52.6963 44.0987 53.027 43.784C53.3577 43.4693 53.7177 43.2267 54.107 43.056C54.5017 42.88 54.907 42.792 55.323 42.792C55.7283 42.792 56.0563 42.8613 56.307 43C56.5577 43.1387 56.7417 43.3227 56.859 43.552C56.9763 43.776 57.035 44.0213 57.035 44.288C57.035 44.5227 56.987 44.76 56.891 45C56.795 45.2347 56.6697 45.424 56.515 45.568C56.179 45.696 55.8403 45.8213 55.499 45.944C55.163 46.0667 54.8243 46.184 54.483 46.296C54.147 46.4027 53.811 46.5067 53.475 46.608C53.139 46.7093 52.803 46.808 52.467 46.904L52.499 46.288C53.075 46.144 53.563 46.0027 53.963 45.864C54.3683 45.7253 54.699 45.592 54.955 45.464C55.211 45.3307 55.4083 45.1973 55.547 45.064C55.691 44.9253 55.7897 44.7867 55.843 44.648C55.8963 44.5093 55.923 44.3653 55.923 44.216C55.923 44.0507 55.891 43.9093 55.827 43.792C55.763 43.6693 55.6697 43.5733 55.547 43.504C55.4243 43.4347 55.2723 43.4 55.091 43.4ZM64.4424 44.016C64.4424 44.512 64.3597 45.0427 64.1944 45.608C64.029 46.168 63.797 46.7173 63.4984 47.256C63.205 47.7947 62.8637 48.2827 62.4744 48.72C62.085 49.1573 61.6637 49.5067 61.2104 49.768C60.757 50.0293 60.285 50.16 59.7944 50.16C59.325 50.16 58.957 50.0453 58.6904 49.816C58.4237 49.5867 58.2904 49.2747 58.2904 48.88C58.2904 48.6507 58.3357 48.408 58.4264 48.152L59.9064 43.864C59.885 43.864 59.8637 43.864 59.8424 43.864C59.8264 43.864 59.8104 43.864 59.7944 43.864C59.5757 43.864 59.365 43.9013 59.1624 43.976C58.965 44.0507 58.7704 44.1813 58.5784 44.368C58.3864 44.5493 58.1944 44.808 58.0024 45.144L57.7464 45.04C57.9117 44.608 58.093 44.248 58.2904 43.96C58.4877 43.6667 58.6984 43.4373 58.9224 43.272C59.1464 43.1013 59.381 42.9813 59.6264 42.912C59.877 42.8373 60.1357 42.8 60.4024 42.8C60.5037 42.8 60.605 42.8053 60.7064 42.816C60.813 42.8267 60.917 42.8427 61.0184 42.864C61.125 42.88 61.229 42.904 61.3304 42.936L59.5784 48.056C59.541 48.168 59.5117 48.272 59.4904 48.368C59.469 48.4587 59.4584 48.5413 59.4584 48.616C59.4584 48.84 59.525 49.0053 59.6584 49.112C59.7917 49.2133 59.981 49.264 60.2264 49.264C60.5357 49.264 60.845 49.1707 61.1544 48.984C61.4637 48.792 61.757 48.544 62.0344 48.24C62.3117 47.936 62.557 47.6053 62.7704 47.248C62.9837 46.8853 63.1517 46.528 63.2744 46.176C63.397 45.824 63.4584 45.5093 63.4584 45.232C63.4584 45.0293 63.4104 44.848 63.3144 44.688C63.2237 44.528 63.117 44.3867 62.9944 44.264C62.877 44.136 62.7704 44.024 62.6744 43.928C62.5837 43.832 62.5384 43.7493 62.5384 43.68C62.5384 43.3867 62.637 43.1653 62.8344 43.016C63.0317 42.8667 63.2477 42.792 63.4824 42.792C63.7864 42.792 64.021 42.8987 64.1864 43.112C64.357 43.32 64.4424 43.6213 64.4424 44.016Z" fill="#F83939"/>
<circle cx="33.25" cy="21.25" r="14.25" fill="black"/>
<path d="M36.9192 24.416L36.9032 24.08C37.0899 24.0853 37.2952 24.0533 37.5192 23.984C37.7485 23.9093 37.9885 23.8 38.2392 23.656C38.4899 23.512 38.7379 23.3413 38.9832 23.144L39.2472 23.456C38.8365 23.888 38.4579 24.2293 38.1112 24.48C37.7699 24.7307 37.4579 24.9067 37.1752 25.008C36.8925 25.1093 36.6259 25.16 36.3752 25.16C36.0285 25.16 35.8125 25.1067 35.7272 25C35.6472 24.888 35.6712 24.6747 35.7992 24.36L37.5272 19.96C37.5805 19.8213 37.6205 19.6987 37.6472 19.592C37.6792 19.48 37.6952 19.3787 37.6952 19.288C37.6952 19.144 37.6499 19.032 37.5592 18.952C37.4685 18.872 37.3112 18.832 37.0872 18.832C36.8205 18.832 36.5352 18.936 36.2312 19.144C35.9272 19.352 35.6232 19.64 35.3192 20.008C35.0205 20.376 34.7352 20.8053 34.4632 21.296C34.1965 21.7813 33.9645 22.304 33.7672 22.864L33.0872 25H31.9112L33.5752 19.96C33.6125 19.864 33.6419 19.776 33.6632 19.696C33.6845 19.616 33.7005 19.544 33.7112 19.48C33.7219 19.4107 33.7272 19.3467 33.7272 19.288C33.7272 19.144 33.6819 19.032 33.5912 18.952C33.5059 18.872 33.3539 18.832 33.1352 18.832C32.8632 18.832 32.5725 18.944 32.2632 19.168C31.9592 19.3867 31.6579 19.6933 31.3592 20.088C31.0659 20.4773 30.7885 20.9333 30.5272 21.456C30.2712 21.9733 30.0525 22.528 29.8712 23.12L29.2872 25H28.1352L29.9912 18.864C29.9699 18.864 29.9512 18.864 29.9352 18.864C29.9192 18.864 29.9005 18.864 29.8792 18.864C29.6605 18.864 29.4525 18.9013 29.2552 18.976C29.0579 19.0507 28.8632 19.1813 28.6712 19.368C28.4792 19.5493 28.2845 19.808 28.0872 20.144L27.8392 20.04C28.0472 19.4587 28.2819 19.008 28.5432 18.688C28.8099 18.3627 29.0979 18.1333 29.4072 18C29.7165 17.8667 30.0365 17.8 30.3672 17.8C30.4685 17.8 30.5672 17.8053 30.6632 17.816C30.7592 17.8267 30.8552 17.8427 30.9512 17.864C31.0472 17.88 31.1432 17.904 31.2392 17.936L30.2392 21.12C30.6019 20.464 30.9352 19.92 31.2392 19.488C31.5485 19.056 31.8392 18.7173 32.1112 18.472C32.3832 18.2267 32.6445 18.0533 32.8952 17.952C33.1512 17.8453 33.4045 17.792 33.6552 17.792C34.0925 17.792 34.3992 17.8773 34.5752 18.048C34.7565 18.2187 34.8472 18.4427 34.8472 18.72C34.8472 18.9067 34.8152 19.1227 34.7512 19.368C34.6872 19.6133 34.6019 19.9067 34.4952 20.248L34.3192 20.8H34.3112C34.6312 20.2347 34.9352 19.76 35.2232 19.376C35.5165 18.9867 35.7992 18.6773 36.0712 18.448C36.3432 18.2133 36.6099 18.0453 36.8712 17.944C37.1379 17.8373 37.4019 17.784 37.6632 17.784C38.1059 17.784 38.4205 17.8747 38.6072 18.056C38.7939 18.2373 38.8872 18.48 38.8872 18.784C38.8872 18.9653 38.8579 19.176 38.7992 19.416C38.7405 19.656 38.6472 19.944 38.5192 20.28L36.9192 24.416Z" fill="white"/>
</svg>
